name processed_emg_signals
nRows=41
nColumns=7
 
endheader
time	RGLTMED	RRF	RADDLONG	RST	RTA	RGM
0.0	0.039848324332904	0.0193021108097169	0.092479570756193	0.053807955292111	0.017941308409304	0.0600251845594626
0.001	0.044036063287085	0.0114824274414773	0.1025801521665854	0.0498085800317465	0.0226751267952914	0.050707570030565
0.002	0.04823048075583	0.0036985945252315	0.1126972026462198	0.0457446114808608	0.0274446532221141	0.041360616198747
0.003	0.052428966707295	0.0040445012761495	0.1228242829888581	0.0416153388889144	0.0322482363290632	0.0319893000861428
0.004	0.056628899990918	0.0117420174425441	0.1329549145229559	0.0374200257323039	0.037084217596899	0.0225986309315484
0.005	0.0608276519815024	0.0193891624319462	0.1430825874989816	0.033157909753296	0.0419509338553806	0.0131936444974048
0.006	0.0650225902316464	0.0269812023968464	0.1532007695459329	0.0288282031352444	0.0468467197804058	0.0037793974118538
0.007	0.0692110821222688	0.0345134677633762	0.1633029141770798	0.0244300928198655	0.0517699103741173	0.0056390384389606
0.008	0.0733904985020097	0.0419813596566486	0.1733824693255136	0.019962740971711	0.0567188434217804	0.0150565814558194
0.009000000000000001	0.0775582173074856	0.049380356157538	0.1834328858900273	0.0154252855943179	0.0616918619192945	0.0244681457981314
0.01	0.0817116271567901	0.0567060183779954	0.1934476262734707	0.0108168413019229	0.0666873164653916	0.0338686467736752
0.011	0.0858481309097733	0.0639539963431232	0.2034201728961693	0.0061365002501585	0.0717035676125392	0.0432530061391566
0.012	0.0899651491883579	0.0711200346691211	0.2133440366679379	0.0013833332285709	0.0767389881704972	0.0526161573059924
0.013000000000000001	0.0940601238509068	0.0781999780267361	0.2232127654034171	0.0034436090829705	0.0817919654564773	0.0619530504471778
0.014	0.0981305214148992	0.0851897763797843	0.2330199521641883	0.0083452946923529	0.0868609034859534	0.0712586575026683
0.015	0.1021738364217259	0.0920854899888064	0.2427592435130146	0.0133227087070694	0.0919442250982335	0.0805279770818177
0.016	0.1061875947380901	0.0988832941699055	0.2524243476642117	0.0183768515795152	0.0970403740113015	0.0897560392626462
0.017	0.1101693567878101	0.1055794837995661	0.2620090425160914	0.0235087371861676	0.1021478168005862	0.0989379102885183
0.018000000000000002	0.1141167207083439	0.1121704775567668	0.271507183551494	0.0287193907414589	0.1072650447965872	0.1080686971633637
0.019	0.1180273254259765	0.1186528218947356	0.2809127115936929	0.0340098465479778	0.1123905758963057	0.1171435521471526
0.02	0.1218988536441805	0.1250231947356379	0.2902196604059725	0.0393811455848826	0.117522956283484	0.1261576771536223
0.021	0.1257290347396953	0.1312784088829897	0.2994221641241016	0.0448343329369906	0.1226607620526759	0.1351063280523844
0.022	0.1295156475613156	0.1374154151476284	0.3085144645116907	0.0503704550673317	0.127802600732175	0.1439848188776037
0.023	0.1332565231270063	0.1434313051842977	0.3174909180288726	0.0559905569367427	0.1329471127009468	0.1527885259451988
0.024	0.1369495472155876	0.1493233140365976	0.3263460027051399	0.0616956789748578	0.1380929724947216	0.1615128918804504
0.025	0.140592662850064	0.1550888223887973	0.3350743248074498	0.0674868539079321	0.1432388899962973	0.1701534295575243
0.026000000000000002	0.1441838726707183	0.1607253585239021	0.3436706252939558	0.0733651034502175	0.148383611505043	0.1787057259524039
0.027	0.1477212411960811	0.1662305999878663	0.3521297860451738	0.07933143486663	0.1535259206803913	0.1871654459104817
0.028	0.1512028969708238	0.1716023749608699	0.3604468358631668	0.0853868374155363	0.1586646393542233	0.195528335830051
0.029	0.1546270345992637	0.1768386633370522	0.3686169562312974	0.0915322786810347	0.1637986282071472	0.2037902272626347
0.03	0.1579919166636003	0.1819375975158227	0.3766354868261294	0.0977687008046871	0.1689267873040292	0.2119470404308065
0.031	0.1612958755258377	0.1868974629091332	0.3844979307739511	0.104097016626934	0.1740480564846027	0.2199947876638636
0.032	0.1645373150125962	0.1917166981708972	0.3921999596439736	0.1105181057486131	0.1791614156056589	0.2279295767513662
0.033	0.167714711982405	0.1963938951562132	0.3997374181712988	0.1170328105229171	0.1842658846321946	0.2357476142144108
0.034	0.1708266177748376	0.2009277986190682	0.4071063287024546	0.1236419319881746	0.1893605235760964	0.2434452084941304
0.035	0.1738716595415738	0.2053173056587116	0.4143028953571137	0.1303462257517504	0.1944444322822344	0.251018773056788
0.036000000000000004	0.1768485414591119	0.2095614649248618	0.4213235079011773	0.1371463978356197	0.1995167500631991	0.2584648294145439
0.037	0.1797560458232389	0.2136594755924771	0.428164745327276	0.144043100494501	0.2045766551852468	0.2657800100608329
0.038	0.182593034025837	0.2176106861167679	0.4348233791412951	0.151036928017763	0.209623364209061	0.2729610613192645
0.039	0.1853584474147731	0.2214145927790198	0.4412963763547521	0.1581284125265252	0.2146561311900406	0.280004846104761
0.04	0.1880513080378825	0.2250708380335968	0.4475809021836461	0.1653180197774017	0.2196742467433181	0.2869083465957028
